<svg width="210" height="34" viewBox="0 0 210 34" fill="none" xmlns="http://www.w3.org/2000/svg">
<path fill-rule="evenodd" clip-rule="evenodd" d="M17.0348 0.917969C21.4851 0.917969 25.5146 2.72202 28.4311 5.63853C31.3131 8.52056 33.1086 12.4892 33.1506 16.8766V16.8857L33.1512 16.9456L33.1517 17.0343L33.1506 17.1829V17.1925C33.1086 21.5799 31.3131 25.5481 28.4311 28.4301C25.5146 31.3466 21.4856 33.1506 17.0348 33.1506C12.5845 33.1506 8.55504 31.3466 5.63853 28.4301C2.72203 25.5136 0.917969 21.4841 0.917969 17.0338C0.917969 12.5835 2.72203 8.55453 5.63853 5.63802C8.55504 2.72152 12.5845 0.917969 17.0348 0.917969ZM26.298 10.1806C26.909 10.1806 27.5017 10.2612 28.066 10.4108C26.4039 8.79791 24.1375 7.80462 21.6383 7.80462C19.0893 7.80462 16.7818 8.83746 15.1121 10.5077C13.4419 12.1779 12.4091 14.4854 12.4091 17.0343C12.4091 19.5832 13.4419 21.8908 15.1121 23.5604C16.7823 25.2306 19.0899 26.2635 21.6383 26.2635C24.1375 26.2635 26.4044 25.2702 28.066 23.6573C27.5022 23.8074 26.9095 23.8875 26.2985 23.8875C24.4062 23.8875 22.6924 23.1203 21.4527 21.8801C20.2124 20.6399 19.4453 18.9261 19.4453 17.0338C19.4453 15.1415 20.2124 13.4277 21.4527 12.1875C22.6919 10.9483 24.4052 10.1806 26.298 10.1806ZM29.5288 13.8034C28.7019 12.977 27.5595 12.4653 26.2975 12.4653C25.0354 12.4653 23.8931 12.977 23.0661 13.8034C22.2391 14.6304 21.728 15.7728 21.728 17.0348C21.728 18.2968 22.2396 19.4392 23.0661 20.2662C23.8931 21.0927 25.0354 21.6043 26.2975 21.6043C27.5595 21.6043 28.7019 21.0927 29.5288 20.2662C30.3553 19.4392 30.8669 18.2968 30.8669 17.0348L30.8664 16.976C30.8512 15.7368 30.3426 14.6172 29.5288 13.8034ZM21.6377 5.52039C23.0732 5.52039 24.4468 5.78304 25.7144 6.26321C23.3409 4.34862 20.3215 3.20219 17.0348 3.20219C13.2153 3.20219 9.75673 4.7507 7.25346 7.25346C4.7507 9.75622 3.20219 13.2148 3.20219 17.0343C3.20219 20.8544 4.75019 24.3124 7.25346 26.8157C9.75673 29.3184 13.2148 30.8669 17.0348 30.8669C20.322 30.8669 23.3409 29.7205 25.7144 27.8054C24.4468 28.2856 23.0732 28.5482 21.6377 28.5482C18.4586 28.5482 15.5796 27.2593 13.4967 25.1759C11.4132 23.0924 10.1243 20.214 10.1243 17.0348C10.1243 13.8557 11.4132 10.9767 13.4967 8.89324C15.5796 6.80929 18.4586 5.52039 21.6377 5.52039Z" fill="#04D484"/>
<path fill-rule="evenodd" clip-rule="evenodd" d="M135.983 28.7854C133.544 28.7854 131.504 27.9655 129.864 26.3247C128.245 24.6631 127.436 22.6451 127.436 20.2706C127.436 17.8535 128.245 15.8355 129.864 14.2165C131.504 12.5763 133.543 11.7559 135.983 11.7559C137.558 11.7559 138.994 12.1336 140.289 12.8891C141.584 13.6446 142.555 14.6592 143.202 15.9324L140.191 17.6806C139.825 16.9039 139.269 16.2939 138.524 15.8512C137.78 15.4086 136.922 15.1875 135.95 15.1875C134.526 15.1875 133.328 15.6733 132.357 16.6443C131.407 17.637 130.932 18.8458 130.932 20.2701C130.932 21.6944 131.407 22.9032 132.357 23.896C133.328 24.8675 134.526 25.3527 135.95 25.3527C136.9 25.3527 137.758 25.1316 138.524 24.689C139.29 24.2468 139.868 23.6369 140.256 22.8601L143.267 24.5759C142.576 25.8709 141.578 26.8961 140.272 27.6516C138.967 28.4081 137.537 28.7854 135.983 28.7854Z" fill="#04D484"/>
<path d="M124.745 12.1777H121.248V28.3651H124.745V12.1777Z" fill="#04D484"/>
<path fill-rule="evenodd" clip-rule="evenodd" d="M124.549 9.10279C124.118 9.53428 123.6 9.75028 122.996 9.75028C122.391 9.75028 121.863 9.53428 121.409 9.10279C120.978 8.64949 120.762 8.12065 120.762 7.51625C120.762 6.91186 120.978 6.39417 121.409 5.96217C121.841 5.50887 122.37 5.28223 122.996 5.28223C123.622 5.28223 124.15 5.50887 124.582 5.96217C125.014 6.39366 125.23 6.91186 125.23 7.51625C125.229 8.12065 125.003 8.64949 124.549 9.10279Z" fill="#04D484"/>
<path fill-rule="evenodd" clip-rule="evenodd" d="M111.822 11.7568C113.656 11.7568 115.135 12.3501 116.257 13.5376C117.379 14.7246 117.94 16.3217 117.94 18.3291V28.365H114.443V18.5558C114.443 17.455 114.163 16.5915 113.602 15.9658C113.041 15.3396 112.275 15.0268 111.303 15.0268C110.203 15.0268 109.34 15.3883 108.713 16.1113C108.088 16.8344 107.774 17.8971 107.774 19.3001V28.365H104.278V18.5558C104.278 17.4332 104.014 16.5646 103.485 15.9496C102.956 15.3345 102.206 15.0268 101.235 15.0268C100.156 15.0268 99.2864 15.3938 98.6283 16.1275C97.9702 16.8612 97.6406 17.9189 97.6406 19.3001V28.365H94.1445V12.1782H97.6406V14.1207C98.677 12.5453 100.22 11.7573 102.27 11.7573C104.342 11.7573 105.875 12.6102 106.868 14.3149C107.925 12.6097 109.577 11.7568 111.822 11.7568Z" fill="#04D484"/>
<path d="M70.5962 5.70312H67.0996V28.3654H70.5962V5.70312Z" fill="#04D484"/>
<path fill-rule="evenodd" clip-rule="evenodd" d="M55.957 16.6452C55.957 17.1416 56.2161 17.5462 56.7338 17.8596C57.252 18.1724 58.0075 18.4691 58.9998 18.75C59.7553 18.9224 60.4134 19.1059 60.9747 19.3001C61.536 19.4943 62.1292 19.7803 62.7554 20.158C63.3816 20.5358 63.8618 21.0322 64.1959 21.6472C64.5306 22.2622 64.6868 22.9797 64.6649 23.8001C64.6649 25.3542 64.0606 26.5736 62.8523 27.4579C61.6435 28.3427 60.1437 28.7853 58.3523 28.7853C56.7551 28.7853 55.3846 28.4507 54.2407 27.7819C53.0968 27.1131 52.2657 26.1847 51.748 24.9977L54.7589 23.2495C55.2984 24.8035 56.496 25.5803 58.3523 25.5803C60.1868 25.5803 61.104 24.9759 61.104 23.7671C61.104 22.8824 60.0788 22.1918 58.0283 21.6954C57.2515 21.5012 56.5984 21.307 56.0696 21.1128C55.5407 20.9186 54.9581 20.6377 54.3213 20.2711C53.6844 19.904 53.1987 19.4188 52.8646 18.8144C52.5299 18.21 52.3732 17.5087 52.395 16.7101C52.395 15.2209 52.9563 14.0233 54.0784 13.1167C55.2223 12.2106 56.6359 11.7568 58.3198 11.7568C59.6579 11.7568 60.8505 12.0535 61.897 12.6472C62.9441 13.2404 63.7477 14.0659 64.309 15.1236L61.3631 16.7745C60.8236 15.5444 59.809 14.9294 58.3198 14.9294C57.6292 14.9294 57.0624 15.0805 56.6202 15.3827C56.1781 15.6849 55.957 16.1057 55.957 16.6452Z" fill="#04D484"/>
<path d="M48.9595 5.70312H45.2363V28.3654H48.9595V5.70312Z" fill="#04D484"/>
<path fill-rule="evenodd" clip-rule="evenodd" d="M87.0162 14.4766V12.1782H90.5128V28.3655H87.0162V26.0346C85.6999 27.8691 83.8112 28.7864 81.3505 28.7864C79.1277 28.7864 77.2283 27.9665 75.6524 26.3257C74.077 24.6854 73.2891 22.6674 73.2891 20.2716C73.2891 17.8758 74.077 15.8578 75.6524 14.2175C77.2283 12.5772 79.1271 11.7568 81.3505 11.7568C83.8112 11.7568 85.6994 12.6634 87.0162 14.4766ZM78.2429 23.9948C79.2144 24.9658 80.4338 25.4515 81.9012 25.4515C83.3686 25.4515 84.5885 24.9658 85.5595 23.9948C86.531 23.002 87.0162 21.7608 87.0162 20.2716C87.0162 18.7824 86.5305 17.5523 85.5595 16.5808C84.5885 15.588 83.3686 15.0917 81.9012 15.0917C80.4333 15.0917 79.2144 15.588 78.2429 16.5808C77.2719 17.5523 76.7861 18.7819 76.7861 20.2716C76.7856 21.739 77.2714 22.9802 78.2429 23.9948Z" fill="#04D484"/>
<path fill-rule="evenodd" clip-rule="evenodd" d="M182.193 26.3247C180.553 27.965 178.535 28.7854 176.139 28.7854C173.743 28.7854 171.725 27.9655 170.085 26.3247C168.423 24.6631 167.592 22.6451 167.592 20.2706C167.592 17.8961 168.423 15.8786 170.085 14.2165C171.725 12.5763 173.743 11.7559 176.139 11.7559C178.535 11.7559 180.553 12.5757 182.193 14.2165C183.855 15.8781 184.686 17.8966 184.686 20.2706C184.686 22.6446 183.855 24.6631 182.193 26.3247ZM171.088 20.2711C171.088 21.739 171.574 22.9579 172.545 23.9294C173.516 24.9004 174.714 25.3862 176.139 25.3862C177.563 25.3862 178.761 24.9004 179.732 23.9294C180.703 22.9579 181.189 21.739 181.189 20.2711C181.189 18.8037 180.703 17.5843 179.732 16.6128C178.76 15.6413 177.563 15.1561 176.139 15.1561C174.714 15.1561 173.516 15.6418 172.545 16.6128C171.574 17.5838 171.088 18.8032 171.088 20.2711Z" fill="#04D484"/>
<path fill-rule="evenodd" clip-rule="evenodd" d="M203.021 11.7568C204.899 11.7568 206.404 12.3557 207.537 13.5538C208.671 14.7519 209.237 16.376 209.237 18.4265V28.3655H205.74V18.7824C205.74 17.5741 205.416 16.6457 204.769 15.9982C204.121 15.3508 203.237 15.0273 202.114 15.0273C200.841 15.0273 199.837 15.4212 199.103 16.2087C198.37 16.9966 198.002 18.1567 198.002 19.689V28.3655H194.506V12.1782H198.002V14.25C199.082 12.5879 200.755 11.7568 203.021 11.7568Z" fill="#04D484"/>
<path d="M190.907 12.1777H187.41V28.3651H190.907V12.1777Z" fill="#04D484"/>
<path fill-rule="evenodd" clip-rule="evenodd" d="M190.714 9.10279C190.282 9.53428 189.764 9.75028 189.16 9.75028C188.555 9.75028 188.027 9.53428 187.573 9.10279C187.142 8.64949 186.926 8.12065 186.926 7.51625C186.926 6.91186 187.142 6.39417 187.573 5.96217C188.005 5.50887 188.534 5.28223 189.16 5.28223C189.786 5.28223 190.314 5.50887 190.746 5.96217C191.178 6.39366 191.394 6.91186 191.394 7.51625C191.394 8.12065 191.167 8.64949 190.714 9.10279Z" fill="#04D484"/>
<path fill-rule="evenodd" clip-rule="evenodd" d="M156.384 28.7857C152.974 28.7857 150.147 27.6636 147.902 25.4189C145.657 23.1311 144.535 20.3363 144.535 17.0339C144.535 13.7103 145.658 10.9261 147.902 8.68144C150.125 6.41547 152.953 5.28223 156.384 5.28223C158.435 5.28223 160.329 5.76797 162.066 6.73896C163.804 7.71045 165.158 9.02673 166.129 10.6888L162.892 12.5664C162.287 11.4443 161.408 10.5539 160.253 9.8953C159.098 9.23716 157.809 8.90809 156.384 8.90809C153.988 8.90809 152.025 9.67423 150.492 11.207C149.003 12.718 148.258 14.6605 148.258 17.0345C148.258 19.4084 149.003 21.3509 150.492 22.8619C152.024 24.3942 153.988 25.1608 156.384 25.1608C157.809 25.1608 159.103 24.8312 160.269 24.1731C161.435 23.515 162.309 22.6246 162.892 21.5025L166.129 23.3476C165.201 24.9879 163.852 26.3154 162.082 27.3294C160.377 28.3004 158.478 28.7857 156.384 28.7857Z" fill="#04D484"/>
</svg>
